<mxfile host="app.diagrams.net" modified="2021-06-18T02:20:20.320Z" agent="5.0 (Windows NT 10.0; Win64; x64) AppleWebKit/537.36 (KHTML, like Gecko) Chrome/91.0.4472.106 Safari/537.36" etag="_l1HnsSlDeguJBKz0351" version="14.7.10" type="github">
  <diagram id="uhwE0c-8e0wxUdymhMIp" name="Page-1">
    <mxGraphModel dx="1133" dy="554" grid="1" gridSize="10" guides="1" tooltips="1" connect="1" arrows="1" fold="1" page="1" pageScale="1" pageWidth="827" pageHeight="1169" math="0" shadow="0">
      <root>
        <mxCell id="0" />
        <mxCell id="1" parent="0" />
        <mxCell id="TPGvRt4gA4q5o_KJM3am-9" value="" style="shape=table;startSize=0;container=1;collapsible=0;childLayout=tableLayout;" vertex="1" parent="1">
          <mxGeometry x="110" y="140" width="70" height="70" as="geometry" />
        </mxCell>
        <mxCell id="TPGvRt4gA4q5o_KJM3am-10" value="" style="shape=partialRectangle;collapsible=0;dropTarget=0;pointerEvents=0;fillColor=none;top=0;left=0;bottom=0;right=0;points=[[0,0.5],[1,0.5]];portConstraint=eastwest;" vertex="1" parent="TPGvRt4gA4q5o_KJM3am-9">
          <mxGeometry width="70" height="35" as="geometry" />
        </mxCell>
        <mxCell id="TPGvRt4gA4q5o_KJM3am-11" value="0" style="shape=partialRectangle;html=1;whiteSpace=wrap;connectable=0;overflow=hidden;fillColor=none;top=0;left=0;bottom=0;right=0;" vertex="1" parent="TPGvRt4gA4q5o_KJM3am-10">
          <mxGeometry width="35" height="35" as="geometry" />
        </mxCell>
        <mxCell id="TPGvRt4gA4q5o_KJM3am-12" value="0" style="shape=partialRectangle;html=1;whiteSpace=wrap;connectable=0;overflow=hidden;fillColor=none;top=0;left=0;bottom=0;right=0;" vertex="1" parent="TPGvRt4gA4q5o_KJM3am-10">
          <mxGeometry x="35" width="35" height="35" as="geometry" />
        </mxCell>
        <mxCell id="TPGvRt4gA4q5o_KJM3am-13" value="" style="shape=partialRectangle;collapsible=0;dropTarget=0;pointerEvents=0;fillColor=none;top=0;left=0;bottom=0;right=0;points=[[0,0.5],[1,0.5]];portConstraint=eastwest;" vertex="1" parent="TPGvRt4gA4q5o_KJM3am-9">
          <mxGeometry y="35" width="70" height="35" as="geometry" />
        </mxCell>
        <mxCell id="TPGvRt4gA4q5o_KJM3am-14" value="0" style="shape=partialRectangle;html=1;whiteSpace=wrap;connectable=0;overflow=hidden;fillColor=none;top=0;left=0;bottom=0;right=0;" vertex="1" parent="TPGvRt4gA4q5o_KJM3am-13">
          <mxGeometry width="35" height="35" as="geometry" />
        </mxCell>
        <mxCell id="TPGvRt4gA4q5o_KJM3am-15" value="0" style="shape=partialRectangle;html=1;whiteSpace=wrap;connectable=0;overflow=hidden;fillColor=none;top=0;left=0;bottom=0;right=0;" vertex="1" parent="TPGvRt4gA4q5o_KJM3am-13">
          <mxGeometry x="35" width="35" height="35" as="geometry" />
        </mxCell>
        <mxCell id="TPGvRt4gA4q5o_KJM3am-16" value="Bắt đầu" style="text;html=1;strokeColor=none;fillColor=none;align=center;verticalAlign=middle;whiteSpace=wrap;rounded=0;" vertex="1" parent="1">
          <mxGeometry x="110" y="110" width="70" height="20" as="geometry" />
        </mxCell>
        <mxCell id="TPGvRt4gA4q5o_KJM3am-34" style="edgeStyle=orthogonalEdgeStyle;rounded=0;orthogonalLoop=1;jettySize=auto;html=1;" edge="1" parent="1" source="TPGvRt4gA4q5o_KJM3am-17" target="TPGvRt4gA4q5o_KJM3am-26">
          <mxGeometry relative="1" as="geometry">
            <Array as="points">
              <mxPoint x="350" y="175" />
              <mxPoint x="350" y="175" />
            </Array>
          </mxGeometry>
        </mxCell>
        <mxCell id="TPGvRt4gA4q5o_KJM3am-17" value="" style="shape=table;startSize=0;container=1;collapsible=0;childLayout=tableLayout;" vertex="1" parent="1">
          <mxGeometry x="240" y="140" width="70" height="70" as="geometry" />
        </mxCell>
        <mxCell id="TPGvRt4gA4q5o_KJM3am-18" value="" style="shape=partialRectangle;collapsible=0;dropTarget=0;pointerEvents=0;fillColor=none;top=0;left=0;bottom=0;right=0;points=[[0,0.5],[1,0.5]];portConstraint=eastwest;" vertex="1" parent="TPGvRt4gA4q5o_KJM3am-17">
          <mxGeometry width="70" height="35" as="geometry" />
        </mxCell>
        <mxCell id="TPGvRt4gA4q5o_KJM3am-19" value="0" style="shape=partialRectangle;html=1;whiteSpace=wrap;connectable=0;overflow=hidden;fillColor=none;top=0;left=0;bottom=0;right=0;" vertex="1" parent="TPGvRt4gA4q5o_KJM3am-18">
          <mxGeometry width="35" height="35" as="geometry" />
        </mxCell>
        <mxCell id="TPGvRt4gA4q5o_KJM3am-20" value="0" style="shape=partialRectangle;html=1;whiteSpace=wrap;connectable=0;overflow=hidden;fillColor=none;top=0;left=0;bottom=0;right=0;" vertex="1" parent="TPGvRt4gA4q5o_KJM3am-18">
          <mxGeometry x="35" width="35" height="35" as="geometry" />
        </mxCell>
        <mxCell id="TPGvRt4gA4q5o_KJM3am-21" value="" style="shape=partialRectangle;collapsible=0;dropTarget=0;pointerEvents=0;fillColor=none;top=0;left=0;bottom=0;right=0;points=[[0,0.5],[1,0.5]];portConstraint=eastwest;" vertex="1" parent="TPGvRt4gA4q5o_KJM3am-17">
          <mxGeometry y="35" width="70" height="35" as="geometry" />
        </mxCell>
        <mxCell id="TPGvRt4gA4q5o_KJM3am-22" value="0" style="shape=partialRectangle;html=1;whiteSpace=wrap;connectable=0;overflow=hidden;fillColor=none;top=0;left=0;bottom=0;right=0;" vertex="1" parent="TPGvRt4gA4q5o_KJM3am-21">
          <mxGeometry width="35" height="35" as="geometry" />
        </mxCell>
        <mxCell id="TPGvRt4gA4q5o_KJM3am-23" value="0" style="shape=partialRectangle;html=1;whiteSpace=wrap;connectable=0;overflow=hidden;fillColor=none;top=0;left=0;bottom=0;right=0;" vertex="1" parent="TPGvRt4gA4q5o_KJM3am-21">
          <mxGeometry x="35" width="35" height="35" as="geometry" />
        </mxCell>
        <mxCell id="TPGvRt4gA4q5o_KJM3am-24" value="A" style="text;html=1;strokeColor=none;fillColor=none;align=center;verticalAlign=middle;whiteSpace=wrap;rounded=0;" vertex="1" parent="1">
          <mxGeometry x="240" y="110" width="70" height="20" as="geometry" />
        </mxCell>
        <mxCell id="TPGvRt4gA4q5o_KJM3am-25" value="" style="shape=table;startSize=0;container=1;collapsible=0;childLayout=tableLayout;" vertex="1" parent="1">
          <mxGeometry x="370" y="140" width="70" height="70" as="geometry" />
        </mxCell>
        <mxCell id="TPGvRt4gA4q5o_KJM3am-26" value="" style="shape=partialRectangle;collapsible=0;dropTarget=0;pointerEvents=0;fillColor=none;top=0;left=0;bottom=0;right=0;points=[[0,0.5],[1,0.5]];portConstraint=eastwest;" vertex="1" parent="TPGvRt4gA4q5o_KJM3am-25">
          <mxGeometry width="70" height="35" as="geometry" />
        </mxCell>
        <mxCell id="TPGvRt4gA4q5o_KJM3am-27" value="" style="shape=partialRectangle;html=1;whiteSpace=wrap;connectable=0;overflow=hidden;fillColor=none;top=0;left=0;bottom=0;right=0;" vertex="1" parent="TPGvRt4gA4q5o_KJM3am-26">
          <mxGeometry width="35" height="35" as="geometry" />
        </mxCell>
        <mxCell id="TPGvRt4gA4q5o_KJM3am-28" value="" style="shape=partialRectangle;html=1;whiteSpace=wrap;connectable=0;overflow=hidden;fillColor=none;top=0;left=0;bottom=0;right=0;" vertex="1" parent="TPGvRt4gA4q5o_KJM3am-26">
          <mxGeometry x="35" width="35" height="35" as="geometry" />
        </mxCell>
        <mxCell id="TPGvRt4gA4q5o_KJM3am-29" value="" style="shape=partialRectangle;collapsible=0;dropTarget=0;pointerEvents=0;fillColor=none;top=0;left=0;bottom=0;right=0;points=[[0,0.5],[1,0.5]];portConstraint=eastwest;" vertex="1" parent="TPGvRt4gA4q5o_KJM3am-25">
          <mxGeometry y="35" width="70" height="35" as="geometry" />
        </mxCell>
        <mxCell id="TPGvRt4gA4q5o_KJM3am-30" value="" style="shape=partialRectangle;html=1;whiteSpace=wrap;connectable=0;overflow=hidden;fillColor=none;top=0;left=0;bottom=0;right=0;" vertex="1" parent="TPGvRt4gA4q5o_KJM3am-29">
          <mxGeometry width="35" height="35" as="geometry" />
        </mxCell>
        <mxCell id="TPGvRt4gA4q5o_KJM3am-31" value="" style="shape=partialRectangle;html=1;whiteSpace=wrap;connectable=0;overflow=hidden;fillColor=none;top=0;left=0;bottom=0;right=0;" vertex="1" parent="TPGvRt4gA4q5o_KJM3am-29">
          <mxGeometry x="35" width="35" height="35" as="geometry" />
        </mxCell>
        <mxCell id="TPGvRt4gA4q5o_KJM3am-32" value="B" style="text;html=1;strokeColor=none;fillColor=none;align=center;verticalAlign=middle;whiteSpace=wrap;rounded=0;" vertex="1" parent="1">
          <mxGeometry x="370" y="110" width="70" height="20" as="geometry" />
        </mxCell>
        <mxCell id="TPGvRt4gA4q5o_KJM3am-33" style="edgeStyle=orthogonalEdgeStyle;rounded=0;orthogonalLoop=1;jettySize=auto;html=1;entryX=0;entryY=0.5;entryDx=0;entryDy=0;" edge="1" parent="1" source="TPGvRt4gA4q5o_KJM3am-13" target="TPGvRt4gA4q5o_KJM3am-21">
          <mxGeometry relative="1" as="geometry" />
        </mxCell>
        <mxCell id="TPGvRt4gA4q5o_KJM3am-35" value="" style="shape=table;startSize=0;container=1;collapsible=0;childLayout=tableLayout;" vertex="1" parent="1">
          <mxGeometry x="540" y="50" width="70" height="70" as="geometry" />
        </mxCell>
        <mxCell id="TPGvRt4gA4q5o_KJM3am-36" value="" style="shape=partialRectangle;collapsible=0;dropTarget=0;pointerEvents=0;fillColor=none;top=0;left=0;bottom=0;right=0;points=[[0,0.5],[1,0.5]];portConstraint=eastwest;" vertex="1" parent="TPGvRt4gA4q5o_KJM3am-35">
          <mxGeometry width="70" height="35" as="geometry" />
        </mxCell>
        <mxCell id="TPGvRt4gA4q5o_KJM3am-37" value="" style="shape=partialRectangle;html=1;whiteSpace=wrap;connectable=0;overflow=hidden;fillColor=none;top=0;left=0;bottom=0;right=0;" vertex="1" parent="TPGvRt4gA4q5o_KJM3am-36">
          <mxGeometry width="35" height="35" as="geometry" />
        </mxCell>
        <mxCell id="TPGvRt4gA4q5o_KJM3am-38" value="" style="shape=partialRectangle;html=1;whiteSpace=wrap;connectable=0;overflow=hidden;fillColor=none;top=0;left=0;bottom=0;right=0;" vertex="1" parent="TPGvRt4gA4q5o_KJM3am-36">
          <mxGeometry x="35" width="35" height="35" as="geometry" />
        </mxCell>
        <mxCell id="TPGvRt4gA4q5o_KJM3am-39" value="" style="shape=partialRectangle;collapsible=0;dropTarget=0;pointerEvents=0;fillColor=none;top=0;left=0;bottom=0;right=0;points=[[0,0.5],[1,0.5]];portConstraint=eastwest;" vertex="1" parent="TPGvRt4gA4q5o_KJM3am-35">
          <mxGeometry y="35" width="70" height="35" as="geometry" />
        </mxCell>
        <mxCell id="TPGvRt4gA4q5o_KJM3am-40" value="" style="shape=partialRectangle;html=1;whiteSpace=wrap;connectable=0;overflow=hidden;fillColor=none;top=0;left=0;bottom=0;right=0;" vertex="1" parent="TPGvRt4gA4q5o_KJM3am-39">
          <mxGeometry width="35" height="35" as="geometry" />
        </mxCell>
        <mxCell id="TPGvRt4gA4q5o_KJM3am-41" value="" style="shape=partialRectangle;html=1;whiteSpace=wrap;connectable=0;overflow=hidden;fillColor=none;top=0;left=0;bottom=0;right=0;" vertex="1" parent="TPGvRt4gA4q5o_KJM3am-39">
          <mxGeometry x="35" width="35" height="35" as="geometry" />
        </mxCell>
        <mxCell id="TPGvRt4gA4q5o_KJM3am-42" value="" style="shape=table;startSize=0;container=1;collapsible=0;childLayout=tableLayout;" vertex="1" parent="1">
          <mxGeometry x="540" y="180" width="70" height="70" as="geometry" />
        </mxCell>
        <mxCell id="TPGvRt4gA4q5o_KJM3am-43" value="" style="shape=partialRectangle;collapsible=0;dropTarget=0;pointerEvents=0;fillColor=none;top=0;left=0;bottom=0;right=0;points=[[0,0.5],[1,0.5]];portConstraint=eastwest;" vertex="1" parent="TPGvRt4gA4q5o_KJM3am-42">
          <mxGeometry width="70" height="35" as="geometry" />
        </mxCell>
        <mxCell id="TPGvRt4gA4q5o_KJM3am-44" value="" style="shape=partialRectangle;html=1;whiteSpace=wrap;connectable=0;overflow=hidden;fillColor=none;top=0;left=0;bottom=0;right=0;" vertex="1" parent="TPGvRt4gA4q5o_KJM3am-43">
          <mxGeometry width="35" height="35" as="geometry" />
        </mxCell>
        <mxCell id="TPGvRt4gA4q5o_KJM3am-45" value="" style="shape=partialRectangle;html=1;whiteSpace=wrap;connectable=0;overflow=hidden;fillColor=none;top=0;left=0;bottom=0;right=0;" vertex="1" parent="TPGvRt4gA4q5o_KJM3am-43">
          <mxGeometry x="35" width="35" height="35" as="geometry" />
        </mxCell>
        <mxCell id="TPGvRt4gA4q5o_KJM3am-46" value="" style="shape=partialRectangle;collapsible=0;dropTarget=0;pointerEvents=0;fillColor=none;top=0;left=0;bottom=0;right=0;points=[[0,0.5],[1,0.5]];portConstraint=eastwest;" vertex="1" parent="TPGvRt4gA4q5o_KJM3am-42">
          <mxGeometry y="35" width="70" height="35" as="geometry" />
        </mxCell>
        <mxCell id="TPGvRt4gA4q5o_KJM3am-47" value="" style="shape=partialRectangle;html=1;whiteSpace=wrap;connectable=0;overflow=hidden;fillColor=none;top=0;left=0;bottom=0;right=0;" vertex="1" parent="TPGvRt4gA4q5o_KJM3am-46">
          <mxGeometry width="35" height="35" as="geometry" />
        </mxCell>
        <mxCell id="TPGvRt4gA4q5o_KJM3am-48" value="" style="shape=partialRectangle;html=1;whiteSpace=wrap;connectable=0;overflow=hidden;fillColor=none;top=0;left=0;bottom=0;right=0;" vertex="1" parent="TPGvRt4gA4q5o_KJM3am-46">
          <mxGeometry x="35" width="35" height="35" as="geometry" />
        </mxCell>
        <mxCell id="TPGvRt4gA4q5o_KJM3am-49" value="" style="shape=table;startSize=0;container=1;collapsible=0;childLayout=tableLayout;" vertex="1" parent="1">
          <mxGeometry x="540" y="290" width="70" height="70" as="geometry" />
        </mxCell>
        <mxCell id="TPGvRt4gA4q5o_KJM3am-50" value="" style="shape=partialRectangle;collapsible=0;dropTarget=0;pointerEvents=0;fillColor=none;top=0;left=0;bottom=0;right=0;points=[[0,0.5],[1,0.5]];portConstraint=eastwest;" vertex="1" parent="TPGvRt4gA4q5o_KJM3am-49">
          <mxGeometry width="70" height="35" as="geometry" />
        </mxCell>
        <mxCell id="TPGvRt4gA4q5o_KJM3am-51" value="" style="shape=partialRectangle;html=1;whiteSpace=wrap;connectable=0;overflow=hidden;fillColor=none;top=0;left=0;bottom=0;right=0;" vertex="1" parent="TPGvRt4gA4q5o_KJM3am-50">
          <mxGeometry width="35" height="35" as="geometry" />
        </mxCell>
        <mxCell id="TPGvRt4gA4q5o_KJM3am-52" value="" style="shape=partialRectangle;html=1;whiteSpace=wrap;connectable=0;overflow=hidden;fillColor=none;top=0;left=0;bottom=0;right=0;" vertex="1" parent="TPGvRt4gA4q5o_KJM3am-50">
          <mxGeometry x="35" width="35" height="35" as="geometry" />
        </mxCell>
        <mxCell id="TPGvRt4gA4q5o_KJM3am-53" value="" style="shape=partialRectangle;collapsible=0;dropTarget=0;pointerEvents=0;fillColor=none;top=0;left=0;bottom=0;right=0;points=[[0,0.5],[1,0.5]];portConstraint=eastwest;" vertex="1" parent="TPGvRt4gA4q5o_KJM3am-49">
          <mxGeometry y="35" width="70" height="35" as="geometry" />
        </mxCell>
        <mxCell id="TPGvRt4gA4q5o_KJM3am-54" value="" style="shape=partialRectangle;html=1;whiteSpace=wrap;connectable=0;overflow=hidden;fillColor=none;top=0;left=0;bottom=0;right=0;" vertex="1" parent="TPGvRt4gA4q5o_KJM3am-53">
          <mxGeometry width="35" height="35" as="geometry" />
        </mxCell>
        <mxCell id="TPGvRt4gA4q5o_KJM3am-55" value="" style="shape=partialRectangle;html=1;whiteSpace=wrap;connectable=0;overflow=hidden;fillColor=none;top=0;left=0;bottom=0;right=0;" vertex="1" parent="TPGvRt4gA4q5o_KJM3am-53">
          <mxGeometry x="35" width="35" height="35" as="geometry" />
        </mxCell>
        <mxCell id="TPGvRt4gA4q5o_KJM3am-56" value="C" style="text;html=1;strokeColor=none;fillColor=none;align=center;verticalAlign=middle;whiteSpace=wrap;rounded=0;" vertex="1" parent="1">
          <mxGeometry x="540" y="20" width="70" height="20" as="geometry" />
        </mxCell>
        <mxCell id="TPGvRt4gA4q5o_KJM3am-58" value="D" style="text;html=1;strokeColor=none;fillColor=none;align=center;verticalAlign=middle;whiteSpace=wrap;rounded=0;" vertex="1" parent="1">
          <mxGeometry x="540" y="150" width="70" height="20" as="geometry" />
        </mxCell>
        <mxCell id="TPGvRt4gA4q5o_KJM3am-59" value="E" style="text;html=1;strokeColor=none;fillColor=none;align=center;verticalAlign=middle;whiteSpace=wrap;rounded=0;" vertex="1" parent="1">
          <mxGeometry x="540" y="260" width="70" height="20" as="geometry" />
        </mxCell>
        <mxCell id="TPGvRt4gA4q5o_KJM3am-60" style="edgeStyle=orthogonalEdgeStyle;rounded=0;orthogonalLoop=1;jettySize=auto;html=1;entryX=-0.018;entryY=0.694;entryDx=0;entryDy=0;entryPerimeter=0;" edge="1" parent="1" source="TPGvRt4gA4q5o_KJM3am-26" target="TPGvRt4gA4q5o_KJM3am-36">
          <mxGeometry relative="1" as="geometry" />
        </mxCell>
        <mxCell id="TPGvRt4gA4q5o_KJM3am-61" style="edgeStyle=orthogonalEdgeStyle;rounded=0;orthogonalLoop=1;jettySize=auto;html=1;entryX=0;entryY=0.5;entryDx=0;entryDy=0;" edge="1" parent="1" source="TPGvRt4gA4q5o_KJM3am-26" target="TPGvRt4gA4q5o_KJM3am-43">
          <mxGeometry relative="1" as="geometry" />
        </mxCell>
        <mxCell id="TPGvRt4gA4q5o_KJM3am-62" style="edgeStyle=orthogonalEdgeStyle;rounded=0;orthogonalLoop=1;jettySize=auto;html=1;entryX=0;entryY=0.5;entryDx=0;entryDy=0;" edge="1" parent="1" source="TPGvRt4gA4q5o_KJM3am-26" target="TPGvRt4gA4q5o_KJM3am-50">
          <mxGeometry relative="1" as="geometry" />
        </mxCell>
        <mxCell id="TPGvRt4gA4q5o_KJM3am-63" value="" style="shape=table;startSize=0;container=1;collapsible=0;childLayout=tableLayout;" vertex="1" parent="1">
          <mxGeometry x="690" y="90" width="70" height="70" as="geometry" />
        </mxCell>
        <mxCell id="TPGvRt4gA4q5o_KJM3am-64" value="" style="shape=partialRectangle;collapsible=0;dropTarget=0;pointerEvents=0;fillColor=none;top=0;left=0;bottom=0;right=0;points=[[0,0.5],[1,0.5]];portConstraint=eastwest;" vertex="1" parent="TPGvRt4gA4q5o_KJM3am-63">
          <mxGeometry width="70" height="35" as="geometry" />
        </mxCell>
        <mxCell id="TPGvRt4gA4q5o_KJM3am-65" value="" style="shape=partialRectangle;html=1;whiteSpace=wrap;connectable=0;overflow=hidden;fillColor=none;top=0;left=0;bottom=0;right=0;" vertex="1" parent="TPGvRt4gA4q5o_KJM3am-64">
          <mxGeometry width="35" height="35" as="geometry" />
        </mxCell>
        <mxCell id="TPGvRt4gA4q5o_KJM3am-66" value="" style="shape=partialRectangle;html=1;whiteSpace=wrap;connectable=0;overflow=hidden;fillColor=none;top=0;left=0;bottom=0;right=0;" vertex="1" parent="TPGvRt4gA4q5o_KJM3am-64">
          <mxGeometry x="35" width="35" height="35" as="geometry" />
        </mxCell>
        <mxCell id="TPGvRt4gA4q5o_KJM3am-67" value="" style="shape=partialRectangle;collapsible=0;dropTarget=0;pointerEvents=0;fillColor=none;top=0;left=0;bottom=0;right=0;points=[[0,0.5],[1,0.5]];portConstraint=eastwest;" vertex="1" parent="TPGvRt4gA4q5o_KJM3am-63">
          <mxGeometry y="35" width="70" height="35" as="geometry" />
        </mxCell>
        <mxCell id="TPGvRt4gA4q5o_KJM3am-68" value="" style="shape=partialRectangle;html=1;whiteSpace=wrap;connectable=0;overflow=hidden;fillColor=none;top=0;left=0;bottom=0;right=0;" vertex="1" parent="TPGvRt4gA4q5o_KJM3am-67">
          <mxGeometry width="35" height="35" as="geometry" />
        </mxCell>
        <mxCell id="TPGvRt4gA4q5o_KJM3am-69" value="" style="shape=partialRectangle;html=1;whiteSpace=wrap;connectable=0;overflow=hidden;fillColor=none;top=0;left=0;bottom=0;right=0;" vertex="1" parent="TPGvRt4gA4q5o_KJM3am-67">
          <mxGeometry x="35" width="35" height="35" as="geometry" />
        </mxCell>
        <mxCell id="TPGvRt4gA4q5o_KJM3am-70" value="F" style="text;html=1;strokeColor=none;fillColor=none;align=center;verticalAlign=middle;whiteSpace=wrap;rounded=0;" vertex="1" parent="1">
          <mxGeometry x="690" y="60" width="70" height="20" as="geometry" />
        </mxCell>
        <mxCell id="TPGvRt4gA4q5o_KJM3am-71" style="edgeStyle=orthogonalEdgeStyle;rounded=0;orthogonalLoop=1;jettySize=auto;html=1;entryX=0.006;entryY=0.832;entryDx=0;entryDy=0;entryPerimeter=0;" edge="1" parent="1" source="TPGvRt4gA4q5o_KJM3am-36" target="TPGvRt4gA4q5o_KJM3am-64">
          <mxGeometry relative="1" as="geometry" />
        </mxCell>
        <mxCell id="TPGvRt4gA4q5o_KJM3am-73" style="edgeStyle=orthogonalEdgeStyle;rounded=0;orthogonalLoop=1;jettySize=auto;html=1;entryX=0.006;entryY=0.832;entryDx=0;entryDy=0;entryPerimeter=0;" edge="1" parent="1" source="TPGvRt4gA4q5o_KJM3am-43" target="TPGvRt4gA4q5o_KJM3am-64">
          <mxGeometry relative="1" as="geometry" />
        </mxCell>
        <mxCell id="TPGvRt4gA4q5o_KJM3am-74" value="" style="shape=table;startSize=0;container=1;collapsible=0;childLayout=tableLayout;" vertex="1" parent="1">
          <mxGeometry x="690" y="220" width="70" height="70" as="geometry" />
        </mxCell>
        <mxCell id="TPGvRt4gA4q5o_KJM3am-75" value="" style="shape=partialRectangle;collapsible=0;dropTarget=0;pointerEvents=0;fillColor=none;top=0;left=0;bottom=0;right=0;points=[[0,0.5],[1,0.5]];portConstraint=eastwest;" vertex="1" parent="TPGvRt4gA4q5o_KJM3am-74">
          <mxGeometry width="70" height="35" as="geometry" />
        </mxCell>
        <mxCell id="TPGvRt4gA4q5o_KJM3am-76" value="" style="shape=partialRectangle;html=1;whiteSpace=wrap;connectable=0;overflow=hidden;fillColor=none;top=0;left=0;bottom=0;right=0;" vertex="1" parent="TPGvRt4gA4q5o_KJM3am-75">
          <mxGeometry width="35" height="35" as="geometry" />
        </mxCell>
        <mxCell id="TPGvRt4gA4q5o_KJM3am-77" value="" style="shape=partialRectangle;html=1;whiteSpace=wrap;connectable=0;overflow=hidden;fillColor=none;top=0;left=0;bottom=0;right=0;" vertex="1" parent="TPGvRt4gA4q5o_KJM3am-75">
          <mxGeometry x="35" width="35" height="35" as="geometry" />
        </mxCell>
        <mxCell id="TPGvRt4gA4q5o_KJM3am-78" value="" style="shape=partialRectangle;collapsible=0;dropTarget=0;pointerEvents=0;fillColor=none;top=0;left=0;bottom=0;right=0;points=[[0,0.5],[1,0.5]];portConstraint=eastwest;" vertex="1" parent="TPGvRt4gA4q5o_KJM3am-74">
          <mxGeometry y="35" width="70" height="35" as="geometry" />
        </mxCell>
        <mxCell id="TPGvRt4gA4q5o_KJM3am-79" value="" style="shape=partialRectangle;html=1;whiteSpace=wrap;connectable=0;overflow=hidden;fillColor=none;top=0;left=0;bottom=0;right=0;" vertex="1" parent="TPGvRt4gA4q5o_KJM3am-78">
          <mxGeometry width="35" height="35" as="geometry" />
        </mxCell>
        <mxCell id="TPGvRt4gA4q5o_KJM3am-80" value="" style="shape=partialRectangle;html=1;whiteSpace=wrap;connectable=0;overflow=hidden;fillColor=none;top=0;left=0;bottom=0;right=0;" vertex="1" parent="TPGvRt4gA4q5o_KJM3am-78">
          <mxGeometry x="35" width="35" height="35" as="geometry" />
        </mxCell>
        <mxCell id="TPGvRt4gA4q5o_KJM3am-81" value="G" style="text;html=1;strokeColor=none;fillColor=none;align=center;verticalAlign=middle;whiteSpace=wrap;rounded=0;" vertex="1" parent="1">
          <mxGeometry x="690" y="190" width="70" height="20" as="geometry" />
        </mxCell>
        <mxCell id="TPGvRt4gA4q5o_KJM3am-82" style="edgeStyle=orthogonalEdgeStyle;rounded=0;orthogonalLoop=1;jettySize=auto;html=1;entryX=0;entryY=0.5;entryDx=0;entryDy=0;" edge="1" parent="1" source="TPGvRt4gA4q5o_KJM3am-50" target="TPGvRt4gA4q5o_KJM3am-75">
          <mxGeometry relative="1" as="geometry" />
        </mxCell>
        <mxCell id="TPGvRt4gA4q5o_KJM3am-83" style="edgeStyle=orthogonalEdgeStyle;rounded=0;orthogonalLoop=1;jettySize=auto;html=1;entryX=0;entryY=0.5;entryDx=0;entryDy=0;" edge="1" parent="1" source="TPGvRt4gA4q5o_KJM3am-43" target="TPGvRt4gA4q5o_KJM3am-75">
          <mxGeometry relative="1" as="geometry" />
        </mxCell>
        <mxCell id="TPGvRt4gA4q5o_KJM3am-84" value="" style="shape=table;startSize=0;container=1;collapsible=0;childLayout=tableLayout;" vertex="1" parent="1">
          <mxGeometry x="840" y="170" width="70" height="70" as="geometry" />
        </mxCell>
        <mxCell id="TPGvRt4gA4q5o_KJM3am-85" value="" style="shape=partialRectangle;collapsible=0;dropTarget=0;pointerEvents=0;fillColor=none;top=0;left=0;bottom=0;right=0;points=[[0,0.5],[1,0.5]];portConstraint=eastwest;" vertex="1" parent="TPGvRt4gA4q5o_KJM3am-84">
          <mxGeometry width="70" height="35" as="geometry" />
        </mxCell>
        <mxCell id="TPGvRt4gA4q5o_KJM3am-86" value="" style="shape=partialRectangle;html=1;whiteSpace=wrap;connectable=0;overflow=hidden;fillColor=none;top=0;left=0;bottom=0;right=0;" vertex="1" parent="TPGvRt4gA4q5o_KJM3am-85">
          <mxGeometry width="35" height="35" as="geometry" />
        </mxCell>
        <mxCell id="TPGvRt4gA4q5o_KJM3am-87" value="" style="shape=partialRectangle;html=1;whiteSpace=wrap;connectable=0;overflow=hidden;fillColor=none;top=0;left=0;bottom=0;right=0;" vertex="1" parent="TPGvRt4gA4q5o_KJM3am-85">
          <mxGeometry x="35" width="35" height="35" as="geometry" />
        </mxCell>
        <mxCell id="TPGvRt4gA4q5o_KJM3am-88" value="" style="shape=partialRectangle;collapsible=0;dropTarget=0;pointerEvents=0;fillColor=none;top=0;left=0;bottom=0;right=0;points=[[0,0.5],[1,0.5]];portConstraint=eastwest;" vertex="1" parent="TPGvRt4gA4q5o_KJM3am-84">
          <mxGeometry y="35" width="70" height="35" as="geometry" />
        </mxCell>
        <mxCell id="TPGvRt4gA4q5o_KJM3am-89" value="" style="shape=partialRectangle;html=1;whiteSpace=wrap;connectable=0;overflow=hidden;fillColor=none;top=0;left=0;bottom=0;right=0;" vertex="1" parent="TPGvRt4gA4q5o_KJM3am-88">
          <mxGeometry width="35" height="35" as="geometry" />
        </mxCell>
        <mxCell id="TPGvRt4gA4q5o_KJM3am-90" value="" style="shape=partialRectangle;html=1;whiteSpace=wrap;connectable=0;overflow=hidden;fillColor=none;top=0;left=0;bottom=0;right=0;" vertex="1" parent="TPGvRt4gA4q5o_KJM3am-88">
          <mxGeometry x="35" width="35" height="35" as="geometry" />
        </mxCell>
        <mxCell id="TPGvRt4gA4q5o_KJM3am-91" value="H" style="text;html=1;strokeColor=none;fillColor=none;align=center;verticalAlign=middle;whiteSpace=wrap;rounded=0;" vertex="1" parent="1">
          <mxGeometry x="840" y="140" width="70" height="20" as="geometry" />
        </mxCell>
        <mxCell id="TPGvRt4gA4q5o_KJM3am-92" style="edgeStyle=orthogonalEdgeStyle;rounded=0;orthogonalLoop=1;jettySize=auto;html=1;entryX=0.011;entryY=0.93;entryDx=0;entryDy=0;entryPerimeter=0;" edge="1" parent="1" source="TPGvRt4gA4q5o_KJM3am-67" target="TPGvRt4gA4q5o_KJM3am-85">
          <mxGeometry relative="1" as="geometry" />
        </mxCell>
        <mxCell id="TPGvRt4gA4q5o_KJM3am-93" style="edgeStyle=orthogonalEdgeStyle;rounded=0;orthogonalLoop=1;jettySize=auto;html=1;entryX=0.031;entryY=-0.05;entryDx=0;entryDy=0;entryPerimeter=0;" edge="1" parent="1" source="TPGvRt4gA4q5o_KJM3am-78" target="TPGvRt4gA4q5o_KJM3am-88">
          <mxGeometry relative="1" as="geometry" />
        </mxCell>
        <mxCell id="TPGvRt4gA4q5o_KJM3am-94" value="" style="shape=table;startSize=0;container=1;collapsible=0;childLayout=tableLayout;" vertex="1" parent="1">
          <mxGeometry x="840" y="310" width="70" height="70" as="geometry" />
        </mxCell>
        <mxCell id="TPGvRt4gA4q5o_KJM3am-95" value="" style="shape=partialRectangle;collapsible=0;dropTarget=0;pointerEvents=0;fillColor=none;top=0;left=0;bottom=0;right=0;points=[[0,0.5],[1,0.5]];portConstraint=eastwest;" vertex="1" parent="TPGvRt4gA4q5o_KJM3am-94">
          <mxGeometry width="70" height="35" as="geometry" />
        </mxCell>
        <mxCell id="TPGvRt4gA4q5o_KJM3am-96" value="" style="shape=partialRectangle;html=1;whiteSpace=wrap;connectable=0;overflow=hidden;fillColor=none;top=0;left=0;bottom=0;right=0;" vertex="1" parent="TPGvRt4gA4q5o_KJM3am-95">
          <mxGeometry width="35" height="35" as="geometry" />
        </mxCell>
        <mxCell id="TPGvRt4gA4q5o_KJM3am-97" value="" style="shape=partialRectangle;html=1;whiteSpace=wrap;connectable=0;overflow=hidden;fillColor=none;top=0;left=0;bottom=0;right=0;" vertex="1" parent="TPGvRt4gA4q5o_KJM3am-95">
          <mxGeometry x="35" width="35" height="35" as="geometry" />
        </mxCell>
        <mxCell id="TPGvRt4gA4q5o_KJM3am-98" value="" style="shape=partialRectangle;collapsible=0;dropTarget=0;pointerEvents=0;fillColor=none;top=0;left=0;bottom=0;right=0;points=[[0,0.5],[1,0.5]];portConstraint=eastwest;" vertex="1" parent="TPGvRt4gA4q5o_KJM3am-94">
          <mxGeometry y="35" width="70" height="35" as="geometry" />
        </mxCell>
        <mxCell id="TPGvRt4gA4q5o_KJM3am-99" value="" style="shape=partialRectangle;html=1;whiteSpace=wrap;connectable=0;overflow=hidden;fillColor=none;top=0;left=0;bottom=0;right=0;" vertex="1" parent="TPGvRt4gA4q5o_KJM3am-98">
          <mxGeometry width="35" height="35" as="geometry" />
        </mxCell>
        <mxCell id="TPGvRt4gA4q5o_KJM3am-100" value="" style="shape=partialRectangle;html=1;whiteSpace=wrap;connectable=0;overflow=hidden;fillColor=none;top=0;left=0;bottom=0;right=0;" vertex="1" parent="TPGvRt4gA4q5o_KJM3am-98">
          <mxGeometry x="35" width="35" height="35" as="geometry" />
        </mxCell>
        <mxCell id="TPGvRt4gA4q5o_KJM3am-101" value="I" style="text;html=1;strokeColor=none;fillColor=none;align=center;verticalAlign=middle;whiteSpace=wrap;rounded=0;" vertex="1" parent="1">
          <mxGeometry x="840" y="280" width="70" height="20" as="geometry" />
        </mxCell>
        <mxCell id="TPGvRt4gA4q5o_KJM3am-102" style="edgeStyle=orthogonalEdgeStyle;rounded=0;orthogonalLoop=1;jettySize=auto;html=1;entryX=0.011;entryY=0.127;entryDx=0;entryDy=0;entryPerimeter=0;" edge="1" parent="1" source="TPGvRt4gA4q5o_KJM3am-78" target="TPGvRt4gA4q5o_KJM3am-98">
          <mxGeometry relative="1" as="geometry" />
        </mxCell>
        <mxCell id="TPGvRt4gA4q5o_KJM3am-103" value="" style="shape=table;startSize=0;container=1;collapsible=0;childLayout=tableLayout;" vertex="1" parent="1">
          <mxGeometry x="960" y="235" width="70" height="70" as="geometry" />
        </mxCell>
        <mxCell id="TPGvRt4gA4q5o_KJM3am-104" value="" style="shape=partialRectangle;collapsible=0;dropTarget=0;pointerEvents=0;fillColor=none;top=0;left=0;bottom=0;right=0;points=[[0,0.5],[1,0.5]];portConstraint=eastwest;" vertex="1" parent="TPGvRt4gA4q5o_KJM3am-103">
          <mxGeometry width="70" height="35" as="geometry" />
        </mxCell>
        <mxCell id="TPGvRt4gA4q5o_KJM3am-105" value="" style="shape=partialRectangle;html=1;whiteSpace=wrap;connectable=0;overflow=hidden;fillColor=none;top=0;left=0;bottom=0;right=0;" vertex="1" parent="TPGvRt4gA4q5o_KJM3am-104">
          <mxGeometry width="35" height="35" as="geometry" />
        </mxCell>
        <mxCell id="TPGvRt4gA4q5o_KJM3am-106" value="" style="shape=partialRectangle;html=1;whiteSpace=wrap;connectable=0;overflow=hidden;fillColor=none;top=0;left=0;bottom=0;right=0;" vertex="1" parent="TPGvRt4gA4q5o_KJM3am-104">
          <mxGeometry x="35" width="35" height="35" as="geometry" />
        </mxCell>
        <mxCell id="TPGvRt4gA4q5o_KJM3am-107" value="" style="shape=partialRectangle;collapsible=0;dropTarget=0;pointerEvents=0;fillColor=none;top=0;left=0;bottom=0;right=0;points=[[0,0.5],[1,0.5]];portConstraint=eastwest;" vertex="1" parent="TPGvRt4gA4q5o_KJM3am-103">
          <mxGeometry y="35" width="70" height="35" as="geometry" />
        </mxCell>
        <mxCell id="TPGvRt4gA4q5o_KJM3am-108" value="" style="shape=partialRectangle;html=1;whiteSpace=wrap;connectable=0;overflow=hidden;fillColor=none;top=0;left=0;bottom=0;right=0;" vertex="1" parent="TPGvRt4gA4q5o_KJM3am-107">
          <mxGeometry width="35" height="35" as="geometry" />
        </mxCell>
        <mxCell id="TPGvRt4gA4q5o_KJM3am-109" value="" style="shape=partialRectangle;html=1;whiteSpace=wrap;connectable=0;overflow=hidden;fillColor=none;top=0;left=0;bottom=0;right=0;" vertex="1" parent="TPGvRt4gA4q5o_KJM3am-107">
          <mxGeometry x="35" width="35" height="35" as="geometry" />
        </mxCell>
        <mxCell id="TPGvRt4gA4q5o_KJM3am-110" value="J" style="text;html=1;strokeColor=none;fillColor=none;align=center;verticalAlign=middle;whiteSpace=wrap;rounded=0;" vertex="1" parent="1">
          <mxGeometry x="960" y="205" width="70" height="20" as="geometry" />
        </mxCell>
        <mxCell id="TPGvRt4gA4q5o_KJM3am-111" style="edgeStyle=orthogonalEdgeStyle;rounded=0;orthogonalLoop=1;jettySize=auto;html=1;entryX=0;entryY=0.714;entryDx=0;entryDy=0;entryPerimeter=0;" edge="1" parent="1" source="TPGvRt4gA4q5o_KJM3am-85" target="TPGvRt4gA4q5o_KJM3am-104">
          <mxGeometry relative="1" as="geometry" />
        </mxCell>
        <mxCell id="TPGvRt4gA4q5o_KJM3am-112" style="edgeStyle=orthogonalEdgeStyle;rounded=0;orthogonalLoop=1;jettySize=auto;html=1;entryX=-0.008;entryY=0.748;entryDx=0;entryDy=0;entryPerimeter=0;" edge="1" parent="1" source="TPGvRt4gA4q5o_KJM3am-95" target="TPGvRt4gA4q5o_KJM3am-104">
          <mxGeometry relative="1" as="geometry" />
        </mxCell>
        <mxCell id="TPGvRt4gA4q5o_KJM3am-115" value="0" style="text;html=1;align=center;verticalAlign=middle;resizable=0;points=[];autosize=1;strokeColor=none;" vertex="1" parent="1">
          <mxGeometry x="200" y="170" width="20" height="20" as="geometry" />
        </mxCell>
        <mxCell id="TPGvRt4gA4q5o_KJM3am-117" value="2" style="text;html=1;align=center;verticalAlign=middle;resizable=0;points=[];autosize=1;strokeColor=none;" vertex="1" parent="1">
          <mxGeometry x="330" y="150" width="20" height="20" as="geometry" />
        </mxCell>
      </root>
    </mxGraphModel>
  </diagram>
</mxfile>
